<svg width="211" height="267" viewBox="0 0 211 267" fill="none" xmlns="http://www.w3.org/2000/svg">
<path d="M49.2631 70.7563C62.3406 66.043 67.9218 48.2932 61.7291 31.111C55.5364 13.9289 39.9148 3.82094 26.8372 8.5343C13.7597 13.2477 8.1784 30.9975 14.3711 48.1796C20.5639 65.3618 36.1855 75.4697 49.2631 70.7563Z" fill="#F4D9D0"/>
<path d="M95.0963 48.2117C103.863 47.1492 109.838 36.9497 108.442 25.4305C107.046 13.9113 98.8077 5.43443 90.0408 6.4969C81.2739 7.55936 75.2987 17.7588 76.6947 29.278C78.0907 40.7972 86.3294 49.2741 95.0963 48.2117Z" fill="#F4D9D0"/>
<path d="M152.676 44.5633C155.659 34.3819 151.796 24.2879 144.047 22.0176C136.298 19.7473 127.599 26.1605 124.616 36.3419C121.633 46.5233 125.496 56.6174 133.245 58.8877C140.993 61.1579 149.693 54.7447 152.676 44.5633Z" fill="#F4D9D0"/>
<path d="M187.281 62.2014C189.794 53.6259 186.537 45.1233 180.008 43.2101C173.478 41.297 166.148 46.6979 163.635 55.2734C161.123 63.8489 164.379 72.3515 170.909 74.2647C177.439 76.1778 184.769 70.7769 187.281 62.2014Z" fill="#F4D9D0"/>
<path d="M204.564 97.6472C208.052 91.6063 207.149 84.5558 202.548 81.8993C197.947 79.2428 191.39 81.9863 187.902 88.0272C184.414 94.068 185.317 101.119 189.918 103.775C194.519 106.432 201.077 103.688 204.564 97.6472Z" fill="#F4D9D0"/>
<path d="M129.89 87.0454C126.349 101.511 125.431 116.495 127.18 131.285C127.97 137.955 128.76 144.555 131.69 152.625C141.49 179.575 160.88 183.445 162.69 201.825C163.44 209.655 160.52 215.315 155.31 225.405C144.93 245.515 121.76 269.405 98.19 265.755C93.2956 264.95 88.6328 263.098 84.52 260.325C92.8494 255.83 100.642 250.406 107.75 244.155C120.09 233.315 133.66 221.395 131.65 208.785C130.57 201.975 125.2 196.585 116.91 188.265C111.46 182.795 110.62 183.375 104.91 177.765C99.2 172.155 92.1 165.275 88.25 155.505C84.4 145.735 85.25 137.405 86.17 128.925C87.403 117.329 90.975 106.102 96.67 95.9254C76.5769 100.176 58.7305 111.624 46.49 128.115C41.37 133.435 36.37 136.815 34.49 135.585C31.63 133.695 37.23 120.925 37.97 119.245C51.86 87.5554 85.16 74.2454 86.65 73.7154C94.06 70.8754 118.65 61.4854 127.39 71.7854C130.9 76.0254 130.74 82.2154 129.89 87.0454Z" fill="url(#paint0_linear_228_51)"/>
<path d="M143.32 90.6653C148.11 100.466 155.082 109.038 163.7 115.725C177.52 126.235 191.07 127.795 190.58 130.425C190.09 133.055 176.05 133.665 163.26 130.125C156.31 128.205 150.26 126.525 145.81 121.215C136.32 109.965 142.64 92.3953 143.32 90.6653Z" fill="url(#paint1_linear_228_51)"/>
<path d="M74.23 158.325C77.116 164.942 80.7892 171.188 85.17 176.925C88.5052 181.288 92.2378 185.332 96.32 189.005C91.8805 199.653 86.0243 209.654 78.91 218.735C73.02 226.245 43.77 263.495 16.46 256.215C12.3 255.105 6.26 252.455 0 245.215C16.4501 240.178 31.4345 231.23 43.67 219.135C67.17 195.805 72.67 168.205 74.23 158.295" fill="url(#paint2_linear_228_51)"/>
<defs>
<linearGradient id="paint0_linear_228_51" x1="98.19" y1="266.125" x2="98.19" y2="67.1054" gradientUnits="userSpaceOnUse">
<stop stop-color="#B84027"/>
<stop offset="0.48" stop-color="#B84027"/>
<stop offset="0.66" stop-color="#B53E26"/>
<stop offset="0.8" stop-color="#AB3925"/>
<stop offset="0.93" stop-color="#9B3022"/>
<stop offset="0.99" stop-color="#8F2920"/>
</linearGradient>
<linearGradient id="paint1_linear_228_51" x1="165.59" y1="132.635" x2="165.59" y2="90.7053" gradientUnits="userSpaceOnUse">
<stop stop-color="#B84027"/>
<stop offset="0.48" stop-color="#B84027"/>
<stop offset="0.66" stop-color="#B53E26"/>
<stop offset="0.8" stop-color="#AB3925"/>
<stop offset="0.93" stop-color="#9B3022"/>
<stop offset="0.99" stop-color="#8F2920"/>
</linearGradient>
<linearGradient id="paint2_linear_228_51" x1="45.5061" y1="258.607" x2="51.9203" y2="156.939" gradientUnits="userSpaceOnUse">
<stop stop-color="#B84027"/>
<stop offset="0.48" stop-color="#B84027"/>
<stop offset="0.66" stop-color="#B53E26"/>
<stop offset="0.8" stop-color="#AB3925"/>
<stop offset="0.93" stop-color="#9B3022"/>
<stop offset="0.99" stop-color="#8F2920"/>
</linearGradient>
</defs>
</svg>
