<svg width="277" height="165" viewBox="0 0 277 165" fill="none" xmlns="http://www.w3.org/2000/svg">
<path d="M30.5434 43.8691C38.6515 40.9468 42.1119 29.9419 38.2724 19.2889C34.4329 8.63595 24.7474 2.36899 16.6393 5.29129C8.53118 8.21359 5.07079 19.2185 8.9103 29.8715C12.7498 40.5245 22.4353 46.7914 30.5434 43.8691Z" fill="#F4D9D0"/>
<path d="M58.9598 29.8913C64.3953 29.2326 68.1 22.9089 67.2345 15.7669C66.369 8.62497 61.261 3.36929 55.8255 4.02802C50.39 4.68675 46.6853 11.0104 47.5508 18.1524C48.4164 25.2943 53.5244 30.55 58.9598 29.8913Z" fill="#F4D9D0"/>
<path d="M94.6597 27.6294C96.5091 21.3169 94.1139 15.0585 89.3097 13.6509C84.5055 12.2434 79.1116 16.2196 77.2621 22.5321C75.4126 28.8446 77.8079 35.1029 82.6121 36.5105C87.4163 37.9181 92.8102 33.9418 94.6597 27.6294Z" fill="#F4D9D0"/>
<path d="M116.115 38.565C117.673 33.2482 115.654 27.9765 111.605 26.7904C107.557 25.6042 103.012 28.9528 101.454 34.2696C99.8966 39.5864 101.916 44.8581 105.964 46.0442C110.012 47.2304 114.557 43.8818 116.115 38.565Z" fill="#F4D9D0"/>
<path d="M126.83 60.5415C128.993 56.7961 128.433 52.4248 125.58 50.7777C122.728 49.1307 118.662 50.8317 116.5 54.5771C114.337 58.3224 114.897 62.6938 117.75 64.3408C120.603 65.9878 124.668 64.2868 126.83 60.5415Z" fill="#F4D9D0"/>
<path d="M80.5321 53.9683C78.3365 62.9373 77.7674 72.2274 78.8519 81.3973C79.3417 85.5327 79.8315 89.6247 81.6481 94.6281C87.7241 111.337 99.746 113.737 100.868 125.132C101.333 129.987 99.5228 133.496 96.2926 139.752C89.857 152.22 75.4915 167.032 60.878 164.769C57.8435 164.27 54.9525 163.121 52.4026 161.402C57.5669 158.616 62.3986 155.252 66.8053 151.377C74.4561 144.656 82.8695 137.266 81.6233 129.447C80.9537 125.225 77.6243 121.883 72.4845 116.725C69.1055 113.334 68.5847 113.693 65.0445 110.215C61.5042 106.737 57.1022 102.471 54.7152 96.4137C52.3282 90.3563 52.8552 85.1917 53.4256 79.9341C54.1901 72.744 56.4047 65.7837 59.9356 59.474C47.4779 62.1091 36.413 69.2072 28.8239 79.4319C25.6495 82.7303 22.5495 84.8259 21.3839 84.0633C19.6107 82.8915 23.0827 74.974 23.5415 73.9324C32.1533 54.2846 52.7994 46.0323 53.7232 45.7037C58.3174 43.9429 73.5633 38.1211 78.9821 44.5071C81.1583 47.1359 81.0591 50.9737 80.5321 53.9683Z" fill="url(#paint0_linear_268_12)"/>
<path d="M88.8589 56.2127C91.8286 62.289 96.1511 67.6041 101.495 71.75C110.063 78.2662 118.464 79.2334 118.16 80.864C117.856 82.4946 109.152 82.8728 101.222 80.678C96.9128 79.4876 93.1617 78.446 90.4027 75.1538C84.5189 68.1788 88.4373 57.2853 88.8589 56.2127Z" fill="url(#paint1_linear_268_12)"/>
<path d="M46.0228 98.1621C47.8122 102.265 50.0895 106.137 52.8056 109.694C54.8734 112.399 57.1877 114.906 59.7187 117.184C56.9661 123.786 53.3353 129.986 48.9244 135.616C45.2726 140.273 27.1375 163.368 10.2052 158.854C7.62604 158.166 3.88122 156.523 0 152.034C10.1991 148.911 19.4894 143.363 27.0755 135.864C41.6456 121.4 45.0556 104.288 46.0228 98.1435" fill="url(#paint2_linear_268_12)"/>
<path d="M149.25 75.7999C149.483 75.7999 149.667 75.9499 149.8 76.2499C149.967 76.5499 150.067 76.9333 150.1 77.3999C150.3 81.1666 150.417 84.9166 150.45 88.6499C150.517 92.3833 150.517 96.1333 150.45 99.8999C150.45 101.533 150.25 103.083 149.85 104.55C149.483 106.017 148.883 107.3 148.05 108.4C147.217 109.5 146.133 110.383 144.8 111.05C143.467 111.683 141.817 112 139.85 112C138.017 112 136.467 111.8 135.2 111.4C133.933 110.967 132.883 110.417 132.05 109.75C131.25 109.05 130.633 108.267 130.2 107.4C129.767 106.5 129.45 105.6 129.25 104.7C129.083 103.8 129 102.917 129 102.05C129.033 101.183 129.067 100.417 129.1 99.7499C129.133 99.2833 129.267 98.9666 129.5 98.7999C129.733 98.5999 129.983 98.4999 130.25 98.4999L136.4 99.0499C136.733 99.0833 136.883 99.4999 136.85 100.3C136.75 101.567 136.883 102.617 137.25 103.45C137.65 104.283 138.333 104.7 139.3 104.7C140.233 104.7 140.85 104.25 141.15 103.35C141.45 102.45 141.617 101.3 141.65 99.8999C141.683 97.2333 141.683 94.5833 141.65 91.9499C141.65 89.2833 141.617 86.6166 141.55 83.9499C141.317 83.9833 141.1 84.0166 140.9 84.0499C140.7 84.0499 140.483 84.0833 140.25 84.1499C139.083 84.3166 137.933 84.5333 136.8 84.7999C135.667 85.0333 134.517 85.2999 133.35 85.5999C133.15 85.6666 132.967 85.6499 132.8 85.5499C132.633 85.4166 132.517 85.2666 132.45 85.0999L130.9 79.1499C130.833 78.9833 130.85 78.8166 130.95 78.6499C131.083 78.4833 131.25 78.3666 131.45 78.2999C132.75 77.9666 134.05 77.6499 135.35 77.3499C136.65 77.0499 138.017 76.7833 139.45 76.5499C140.883 76.3166 142.4 76.1333 144 75.9999C145.6 75.8666 147.35 75.7999 149.25 75.7999ZM166.718 86.1999C169.418 86.1999 171.734 86.8666 173.668 88.1999C175.634 89.5333 176.951 91.4999 177.618 94.0999C177.784 94.7333 177.901 95.3666 177.968 95.9999C178.068 96.6333 178.151 97.2833 178.218 97.9499C178.284 98.3499 178.268 98.6333 178.168 98.7999C178.068 98.9333 177.834 99.0333 177.468 99.0999L162.268 102.2C162.634 103.5 163.201 104.4 163.968 104.9C164.734 105.367 165.651 105.567 166.718 105.5C167.684 105.433 168.468 105.15 169.068 104.65C169.668 104.15 170.001 103.567 170.068 102.9C170.101 102.733 170.168 102.567 170.268 102.4C170.368 102.233 170.518 102.117 170.718 102.05L177.468 100.9C178.001 100.867 178.268 101.083 178.268 101.55C178.268 104.983 177.218 107.55 175.118 109.25C173.051 110.95 170.134 111.867 166.368 112C162.334 112.167 159.218 111.25 157.018 109.25C154.851 107.217 153.684 104.183 153.518 100.15C153.284 95.7499 154.151 92.4166 156.118 90.1499C158.084 87.8499 161.284 86.5499 165.718 86.2499C165.884 86.2499 166.051 86.2499 166.218 86.2499C166.384 86.2166 166.551 86.1999 166.718 86.1999ZM166.218 92.7999C166.118 92.7666 166.018 92.7666 165.918 92.7999C165.818 92.7999 165.701 92.7999 165.568 92.7999C164.634 92.8999 163.818 93.2999 163.118 93.9999C162.451 94.6999 162.034 95.7999 161.868 97.2999L169.618 95.6999C169.351 94.6999 168.918 93.9666 168.318 93.4999C167.718 93.0333 167.018 92.7999 166.218 92.7999ZM186.016 73.8499C187.483 73.8499 188.733 74.3666 189.766 75.3999C190.833 76.4999 191.333 77.7833 191.266 79.2499C191.266 79.9833 191.116 80.6833 190.816 81.3499C190.516 82.0166 190.099 82.5999 189.566 83.0999C189.066 83.5999 188.483 83.9999 187.816 84.2999C187.149 84.5666 186.449 84.6999 185.716 84.6999C184.283 84.6999 183.033 84.1666 181.966 83.0999C181.433 82.5666 181.033 81.9666 180.766 81.2999C180.533 80.6333 180.433 79.9499 180.466 79.2499C180.499 78.4833 180.666 77.7833 180.966 77.1499C181.266 76.4833 181.666 75.9166 182.166 75.4499C182.666 74.9499 183.249 74.5666 183.916 74.2999C184.583 73.9999 185.283 73.8499 186.016 73.8499ZM190.666 87.6999C190.833 91.4333 190.949 95.1333 191.016 98.7999C191.083 102.467 191.083 106.167 191.016 109.9C191.016 111.6 190.783 113.2 190.316 114.7C189.849 116.233 189.133 117.567 188.166 118.7C187.199 119.867 185.949 120.817 184.416 121.55C182.883 122.283 181.033 122.7 178.866 122.8C178.766 122.8 178.666 122.733 178.566 122.6C178.433 122.467 178.366 122.317 178.366 122.15V116.15C178.366 116.017 178.433 115.883 178.566 115.75C178.666 115.617 178.799 115.533 178.966 115.5C180.066 115.4 180.949 114.983 181.616 114.25C182.283 113.517 182.616 112.333 182.616 110.7C182.683 106.9 182.683 103.133 182.616 99.3999C182.583 95.6666 182.466 91.9166 182.266 88.1499C182.233 87.5166 182.299 87.0833 182.466 86.8499C182.633 86.6166 182.866 86.4833 183.166 86.4499L189.566 86.0999C190.066 86.0999 190.366 86.2666 190.466 86.5999C190.566 86.9333 190.633 87.2999 190.666 87.6999ZM218.402 86.0999C218.602 86.0999 218.785 86.2166 218.952 86.4499C219.119 86.6499 219.202 86.9333 219.202 87.2999C219.269 91.2666 219.269 95.2333 219.202 99.1999C219.135 103.133 219.002 107.083 218.802 111.05C218.769 111.383 218.669 111.667 218.502 111.9C218.369 112.1 218.185 112.2 217.952 112.2L211.152 111.8C210.752 111.8 210.519 111.517 210.452 110.95C209.819 111.283 209.102 111.55 208.302 111.75C207.502 111.917 206.619 112 205.652 112C202.952 112 200.719 111.367 198.952 110.1C197.185 108.833 195.852 107.25 194.952 105.35C194.085 103.417 193.652 101.35 193.652 99.1499C193.652 96.9166 194.085 94.8499 194.952 92.9499C195.819 91.0166 197.119 89.4166 198.852 88.1499C200.585 86.8833 202.719 86.2499 205.252 86.2499C206.419 86.2499 207.452 86.4166 208.352 86.7499C209.285 87.0499 210.119 87.4333 210.852 87.8999C210.852 87.8333 210.835 87.7666 210.802 87.6999C210.802 87.5999 210.802 87.5166 210.802 87.4499C210.802 87.1166 210.869 86.8499 211.002 86.6499C211.169 86.4166 211.352 86.2999 211.552 86.2999L218.402 86.0999ZM206.802 93.2999C205.835 93.2999 205.035 93.5999 204.402 94.1999C203.769 94.7666 203.302 95.4833 203.002 96.3499C202.702 97.1833 202.569 98.1166 202.602 99.1499C202.635 100.15 202.819 101.083 203.152 101.95C203.519 102.783 204.052 103.5 204.752 104.1C205.452 104.667 206.302 104.95 207.302 104.95C208.269 104.95 209.035 104.617 209.602 103.95C210.202 103.283 210.585 102.5 210.752 101.6C210.785 101.067 210.802 100.533 210.802 99.9999C210.802 99.4666 210.819 98.9166 210.852 98.3499C210.852 97.5499 210.719 96.8333 210.452 96.1999C210.219 95.5666 209.902 95.0499 209.502 94.6499C209.102 94.2166 208.669 93.8833 208.202 93.6499C207.735 93.4166 207.269 93.2999 206.802 93.2999ZM223.275 75.7999H223.325L230.125 76.1999C230.358 76.1999 230.541 76.3666 230.675 76.6999C230.808 76.9999 230.858 77.3833 230.825 77.8499C230.658 80.7833 230.541 83.7166 230.475 86.6499C230.408 89.5499 230.391 92.4666 230.425 95.3999C230.658 95.3999 230.841 95.3833 230.975 95.3499C231.541 95.3166 232.091 95.2333 232.625 95.0999C233.058 94.9333 233.391 94.7833 233.625 94.6499C233.891 94.4833 234.091 94.2833 234.225 94.0499C234.525 93.7499 234.741 93.2833 234.875 92.6499C235.041 91.9833 235.141 91.4499 235.175 91.0499C235.208 90.8833 235.225 90.6333 235.225 90.2999C235.258 89.9666 235.275 89.6166 235.275 89.2499C235.275 88.8833 235.275 88.5333 235.275 88.1999C235.275 87.8666 235.275 87.5999 235.275 87.3999C235.275 86.8333 235.525 86.5166 236.025 86.4499L242.825 86.0999C243.325 86.0999 243.608 86.4833 243.675 87.2499C243.675 88.5166 243.591 89.7666 243.425 90.9999C243.291 92.2333 243.008 93.3999 242.575 94.4999C242.175 95.5999 241.608 96.6333 240.875 97.5999C240.175 98.5666 239.275 99.4166 238.175 100.15C237.975 100.283 237.775 100.4 237.575 100.5C237.375 100.6 237.175 100.717 236.975 100.85C238.141 101.517 239.325 102.117 240.525 102.65C241.725 103.15 242.958 103.533 244.225 103.8C244.758 103.933 245.025 104.217 245.025 104.65V111.45C245.025 111.683 244.841 111.867 244.475 112C244.141 112.167 243.741 112.217 243.275 112.15C242.141 112.017 241.025 111.733 239.925 111.3C238.825 110.867 237.741 110.35 236.675 109.75C235.608 109.117 234.575 108.45 233.575 107.75C232.575 107.017 231.591 106.283 230.625 105.55C230.658 106.317 230.675 107.083 230.675 107.85C230.708 108.617 230.758 109.383 230.825 110.15C230.858 110.617 230.808 111.017 230.675 111.35C230.541 111.65 230.358 111.8 230.125 111.8L223.325 112.2C223.091 112.2 222.891 112.05 222.725 111.75C222.558 111.417 222.475 111.017 222.475 110.55C222.208 105.017 222.058 99.4999 222.025 93.9999C222.025 88.4999 222.158 82.9666 222.425 77.3999C222.458 76.9333 222.558 76.5499 222.725 76.2499C222.891 75.9499 223.075 75.7999 223.275 75.7999Z" fill="#F4D9D0"/>
<path d="M118.16 119C118.533 119 118.92 119.013 119.32 119.04C119.747 119.067 120.173 119.107 120.6 119.16C122.093 119.347 123.493 119.667 124.8 120.12C126.107 120.573 127.253 121.2 128.24 122C129.227 122.8 130 123.813 130.56 125.04C131.147 126.267 131.44 127.76 131.44 129.52C131.44 131.2 131.093 132.733 130.4 134.12C129.707 135.507 128.747 136.707 127.52 137.72C126.32 138.733 124.907 139.573 123.28 140.24C121.653 140.88 119.907 141.32 118.04 141.56C118.067 142.387 118.093 143.213 118.12 144.04C118.147 144.867 118.187 145.693 118.24 146.52C118.24 146.893 118.187 147.213 118.08 147.48C117.973 147.72 117.827 147.84 117.64 147.84L111.88 148.16C111.693 148.16 111.533 148.04 111.4 147.8C111.267 147.56 111.187 147.253 111.16 146.88C110.84 140.027 110.76 133.173 110.92 126.32C110.84 126.32 110.773 126.333 110.72 126.36C110.373 126.36 110.16 126.307 110.08 126.2L108 121.72C107.947 121.56 108.12 121.347 108.52 121.08C109.187 120.6 109.92 120.227 110.72 119.96C111.547 119.693 112.387 119.493 113.24 119.36C114.093 119.2 114.933 119.107 115.76 119.08C116.613 119.027 117.413 119 118.16 119ZM118.04 125.08C117.907 128.52 117.867 131.987 117.92 135.48C118.773 135.32 119.587 135.107 120.36 134.84C121.133 134.573 121.813 134.213 122.4 133.76C122.987 133.28 123.453 132.707 123.8 132.04C124.173 131.347 124.36 130.507 124.36 129.52C124.36 128.56 124.173 127.8 123.8 127.24C123.427 126.653 122.933 126.2 122.32 125.88C121.733 125.56 121.053 125.347 120.28 125.24C119.533 125.133 118.787 125.08 118.04 125.08ZM142.841 127.36C145.001 127.36 146.855 127.893 148.401 128.96C149.975 130.027 151.028 131.6 151.561 133.68C151.695 134.187 151.788 134.693 151.841 135.2C151.921 135.707 151.988 136.227 152.041 136.76C152.095 137.08 152.081 137.307 152.001 137.44C151.921 137.547 151.735 137.627 151.441 137.68L139.281 140.16C139.575 141.2 140.028 141.92 140.641 142.32C141.255 142.693 141.988 142.853 142.841 142.8C143.615 142.747 144.241 142.52 144.721 142.12C145.201 141.72 145.468 141.253 145.521 140.72C145.548 140.587 145.601 140.453 145.681 140.32C145.761 140.187 145.881 140.093 146.041 140.04L151.441 139.12C151.868 139.093 152.081 139.267 152.081 139.64C152.081 142.387 151.241 144.44 149.561 145.8C147.908 147.16 145.575 147.893 142.561 148C139.335 148.133 136.841 147.4 135.081 145.8C133.348 144.173 132.415 141.747 132.281 138.52C132.095 135 132.788 132.333 134.361 130.52C135.935 128.68 138.495 127.64 142.041 127.4C142.175 127.4 142.308 127.4 142.441 127.4C142.575 127.373 142.708 127.36 142.841 127.36ZM142.441 132.64C142.361 132.613 142.281 132.613 142.201 132.64C142.121 132.64 142.028 132.64 141.921 132.64C141.175 132.72 140.521 133.04 139.961 133.6C139.428 134.16 139.095 135.04 138.961 136.24L145.161 134.96C144.948 134.16 144.601 133.573 144.121 133.2C143.641 132.827 143.081 132.64 142.441 132.64ZM154.8 127.28L160.28 127.44C160.44 127.44 160.573 127.533 160.68 127.72C160.813 127.88 160.88 128.093 160.88 128.36C161.413 128.067 162.013 127.84 162.68 127.68C163.347 127.493 164.067 127.4 164.84 127.4C167.4 127.4 169.333 128.12 170.64 129.56C171.333 128.973 172.147 128.467 173.08 128.04C174.04 127.613 175.133 127.4 176.36 127.4C178.947 127.4 180.88 128.093 182.16 129.48C183.467 130.867 184.133 132.893 184.16 135.56C184.16 137.427 184.12 139.293 184.04 141.16C183.987 143 183.92 144.84 183.84 146.68C183.813 147.107 183.733 147.467 183.6 147.76C183.467 148.027 183.307 148.16 183.12 148.16L177.68 147.84C177.493 147.84 177.347 147.693 177.24 147.4C177.133 147.107 177.093 146.76 177.12 146.36C177.227 144.52 177.307 142.707 177.36 140.92C177.44 139.107 177.467 137.293 177.44 135.48C177.44 133.853 176.507 133.04 174.64 133.04C174.187 133.04 173.787 133.12 173.44 133.28C173.093 133.413 172.773 133.587 172.48 133.8C172.56 134.36 172.6 134.947 172.6 135.56C172.6 137.427 172.56 139.293 172.48 141.16C172.427 143 172.36 144.84 172.28 146.68C172.253 147.107 172.173 147.467 172.04 147.76C171.907 148.027 171.747 148.16 171.56 148.16L166.12 147.84C165.933 147.84 165.787 147.693 165.68 147.4C165.573 147.107 165.533 146.76 165.56 146.36C165.667 144.52 165.76 142.707 165.84 140.92C165.92 139.107 165.933 137.293 165.88 135.48C165.88 133.853 164.96 133.04 163.12 133.04C162.64 133.04 162.213 133.12 161.84 133.28C161.467 133.44 161.133 133.653 160.84 133.92C160.84 138.24 160.96 142.56 161.2 146.88C161.2 147.147 161.147 147.373 161.04 147.56C160.933 147.747 160.787 147.84 160.6 147.84L155.16 148.16C154.973 148.16 154.813 148.08 154.68 147.92C154.573 147.733 154.507 147.507 154.48 147.24C154.32 144.067 154.213 140.907 154.16 137.76C154.107 134.587 154.107 131.413 154.16 128.24C154.187 127.947 154.253 127.72 154.36 127.56C154.493 127.373 154.64 127.28 154.8 127.28ZM204.786 127.28C204.946 127.28 205.079 127.373 205.186 127.56C205.319 127.72 205.399 127.933 205.426 128.2C205.586 131.373 205.692 134.533 205.746 137.68C205.799 140.827 205.799 144 205.746 147.2C205.746 147.467 205.679 147.693 205.546 147.88C205.412 148.067 205.266 148.16 205.106 148.16L199.626 148C199.466 148 199.319 147.92 199.186 147.76C199.079 147.573 199.026 147.347 199.026 147.08C199.026 146.84 199.039 146.667 199.066 146.56C198.426 146.96 197.706 147.307 196.906 147.6C196.106 147.867 195.199 148 194.186 148C191.626 148 189.692 147.32 188.386 145.96C187.106 144.573 186.452 142.547 186.426 139.88C186.426 137.987 186.452 136.12 186.506 134.28C186.586 132.44 186.666 130.6 186.746 128.76C186.772 128.333 186.852 127.987 186.986 127.72C187.119 127.427 187.279 127.28 187.466 127.28L192.906 127.56C193.092 127.587 193.239 127.747 193.346 128.04C193.452 128.333 193.492 128.68 193.466 129.08C193.359 130.92 193.266 132.747 193.186 134.56C193.132 136.347 193.119 138.133 193.146 139.92C193.146 141.573 194.066 142.4 195.906 142.4C196.679 142.4 197.319 142.213 197.826 141.84C198.359 141.44 198.772 140.987 199.066 140.48C199.066 138.48 199.039 136.493 198.986 134.52C198.932 132.52 198.852 130.52 198.746 128.52C198.719 128.28 198.759 128.067 198.866 127.88C198.972 127.693 199.119 127.587 199.306 127.56L204.746 127.28H204.786ZM227.306 119.04C227.493 119.04 227.64 119.16 227.746 119.4C227.88 119.64 227.96 119.947 227.986 120.32C228.226 124.773 228.333 129.2 228.306 133.6C228.306 138 228.2 142.413 227.986 146.84C227.96 147.213 227.88 147.533 227.746 147.8C227.613 148.04 227.453 148.16 227.266 148.16L221.826 147.84C221.56 147.84 221.386 147.6 221.306 147.12C220.266 147.707 218.973 148 217.426 148C215.266 148 213.48 147.493 212.066 146.48C210.653 145.467 209.586 144.2 208.866 142.68C208.173 141.133 207.826 139.48 207.826 137.72C207.826 135.933 208.173 134.28 208.866 132.76C209.56 131.213 210.6 129.933 211.986 128.92C213.373 127.907 215.08 127.4 217.106 127.4C218.04 127.4 218.866 127.533 219.586 127.8C220.333 128.04 221 128.347 221.586 128.72C221.533 127.36 221.48 126.027 221.426 124.72C221.4 123.387 221.346 122.04 221.266 120.68C221.266 120.307 221.32 120 221.426 119.76C221.533 119.493 221.666 119.36 221.826 119.36L227.266 119.04H227.306ZM218.346 133.04C217.573 133.04 216.933 133.28 216.426 133.76C215.92 134.213 215.546 134.787 215.306 135.48C215.066 136.147 214.96 136.893 214.986 137.72C215.013 138.52 215.16 139.267 215.426 139.96C215.72 140.627 216.146 141.2 216.706 141.68C217.266 142.133 217.946 142.36 218.746 142.36C219.546 142.36 220.173 142.093 220.626 141.56C221.106 141.027 221.413 140.4 221.546 139.68C221.546 139.227 221.546 138.8 221.546 138.4C221.573 137.973 221.586 137.547 221.586 137.12C221.586 136.48 221.48 135.907 221.266 135.4C221.08 134.893 220.826 134.467 220.506 134.12C220.186 133.773 219.84 133.507 219.466 133.32C219.093 133.133 218.72 133.04 218.346 133.04ZM250.087 127.28C250.247 127.28 250.394 127.373 250.527 127.56C250.661 127.72 250.727 127.947 250.727 128.24C250.781 131.413 250.781 134.587 250.727 137.76C250.674 140.907 250.567 144.067 250.407 147.24C250.381 147.507 250.301 147.733 250.167 147.92C250.061 148.08 249.914 148.16 249.727 148.16L244.287 147.84C243.967 147.84 243.781 147.613 243.727 147.16C243.221 147.427 242.647 147.64 242.007 147.8C241.367 147.933 240.661 148 239.887 148C237.727 148 235.941 147.493 234.527 146.48C233.114 145.467 232.047 144.2 231.327 142.68C230.634 141.133 230.287 139.48 230.287 137.72C230.287 135.933 230.634 134.28 231.327 132.76C232.021 131.213 233.061 129.933 234.447 128.92C235.834 127.907 237.541 127.4 239.567 127.4C240.501 127.4 241.327 127.533 242.047 127.8C242.794 128.04 243.461 128.347 244.047 128.72C244.047 128.667 244.034 128.613 244.007 128.56C244.007 128.48 244.007 128.413 244.007 128.36C244.007 128.093 244.061 127.88 244.167 127.72C244.301 127.533 244.447 127.44 244.607 127.44L250.087 127.28ZM240.807 133.04C240.034 133.04 239.394 133.28 238.887 133.76C238.381 134.213 238.007 134.787 237.767 135.48C237.527 136.147 237.421 136.893 237.447 137.72C237.474 138.52 237.621 139.267 237.887 139.96C238.181 140.627 238.607 141.2 239.167 141.68C239.727 142.133 240.407 142.36 241.207 142.36C241.981 142.36 242.594 142.093 243.047 141.56C243.527 141.027 243.834 140.4 243.967 139.68C243.994 139.253 244.007 138.827 244.007 138.4C244.007 137.973 244.021 137.533 244.047 137.08C244.047 136.44 243.941 135.867 243.727 135.36C243.541 134.853 243.287 134.44 242.967 134.12C242.647 133.773 242.301 133.507 241.927 133.32C241.554 133.133 241.181 133.04 240.807 133.04Z" fill="#B84027"/>
<defs>
<linearGradient id="paint0_linear_268_12" x1="60.878" y1="164.998" x2="60.878" y2="41.6055" gradientUnits="userSpaceOnUse">
<stop stop-color="#B84027"/>
<stop offset="0.48" stop-color="#B84027"/>
<stop offset="0.66" stop-color="#B53E26"/>
<stop offset="0.8" stop-color="#AB3925"/>
<stop offset="0.93" stop-color="#9B3022"/>
<stop offset="0.99" stop-color="#8F2920"/>
</linearGradient>
<linearGradient id="paint1_linear_268_12" x1="102.666" y1="82.2342" x2="102.666" y2="56.2375" gradientUnits="userSpaceOnUse">
<stop stop-color="#B84027"/>
<stop offset="0.48" stop-color="#B84027"/>
<stop offset="0.66" stop-color="#B53E26"/>
<stop offset="0.8" stop-color="#AB3925"/>
<stop offset="0.93" stop-color="#9B3022"/>
<stop offset="0.99" stop-color="#8F2920"/>
</linearGradient>
<linearGradient id="paint2_linear_268_12" x1="28.2139" y1="160.337" x2="32.1907" y2="97.3026" gradientUnits="userSpaceOnUse">
<stop stop-color="#B84027"/>
<stop offset="0.48" stop-color="#B84027"/>
<stop offset="0.66" stop-color="#B53E26"/>
<stop offset="0.8" stop-color="#AB3925"/>
<stop offset="0.93" stop-color="#9B3022"/>
<stop offset="0.99" stop-color="#8F2920"/>
</linearGradient>
</defs>
</svg>
